<svg viewBox="0 0 1600 1600" xmlns="http://www.w3.org/2000/svg">
  <path d="m36 1594-2-174-9-786-2-174-2-175-2-175-1-87 377-6 152-2 153-2 303-4 304-4 151-2 76-1 7 165 5 120 4 94 15 347 7 179 8 191 16 370 4 94v10h-33l-92 2-241 4-121 2-241 4a182030 182030 0 0 1-812 14H36v-4Z" fill="#191919"/>
  <path d="m734 1373 79-8 16-87 70-422-83-3-102-4h-19v2a62641 62641 0 0 1-22 305 26912 26912 0 0 1-73-245l-23 1-52 4-33 3-3 1-5 36-21 159-3 15-21-74-62-219-67 18-89 24-24 7c-1 1 38 132 144 483a7702 7702 0 0 0 196 0l7-27 25-94 5-18a3633 3633 0 0 1 81 150l79-7Zm388-7a42118 42118 0 0 0 12-200l7 13 59 94 50 82 8-1a8175 8175 0 0 1 134-25c2 0 2-2 2-14l10-472-32 2-62 4-98 7 2 17 14 162c-1 1 4 8-66-94l-58-85-54-1-53-1-11 244-11 247v2l43 8 73 13 30 6 1-8ZM386 755l133-6 19-10 95-50 108-59-14-204-6-63-172-128-7-5h-36l-251 5-11 523c0 2 1 2 5 2l137-5Zm702-1 124-7 46-3c2 0 4-2 7-9l48-91 43-83-23-101-31-131-8-32-53-17-170-53-23-7-32 16-99 51-92 46-24 12v5a12599 12599 0 0 0 24 243l1 14 18 17 135 134c2 2-1 2 109-4ZM435 591l4-68 7-103 3-35 49 17 47 18 3 18 6 40 7 44-61 34a6239 6239 0 0 0-65 35Zm614-37-50-34c-1 0 3-12 17-50l19-50 92-5 25 44 24 43-4 4-38 43-35 38-50-33Z" style="fill:#fff"/>
</svg>